G04*
G04 #@! TF.GenerationSoftware,Altium Limited,Altium Designer,23.0.1 (38)*
G04*
G04 Layer_Color=128*
%FSLAX44Y44*%
%MOMM*%
G71*
G04*
G04 #@! TF.SameCoordinates,F02949BF-B442-4A25-BC58-536D77071835*
G04*
G04*
G04 #@! TF.FilePolarity,Positive*
G04*
G01*
G75*
%ADD39C,0.1270*%
D39*
X565000Y494600D02*
X575000D01*
X570000Y489600D02*
Y499600D01*
X565000Y520000D02*
X575000D01*
X570000Y515000D02*
Y525000D01*
X565000Y545400D02*
X575000D01*
X570000Y540400D02*
Y550400D01*
X686500Y471900D02*
X693500D01*
X690000Y468400D02*
Y475400D01*
X686500Y548100D02*
X693500D01*
X690000Y544600D02*
Y551600D01*
X416500Y538100D02*
X423500D01*
X420000Y534600D02*
Y541600D01*
X416500Y461900D02*
X423500D01*
X420000Y458400D02*
Y465400D01*
X563250Y350700D02*
X576750D01*
X570000Y343950D02*
Y357450D01*
X563250Y325350D02*
X576750D01*
X570000Y318600D02*
Y332100D01*
X563250Y300000D02*
X576750D01*
X570000Y293250D02*
Y306750D01*
X826800Y322700D02*
X837800D01*
X832300Y317200D02*
Y328200D01*
X826800Y348100D02*
X837800D01*
X832300Y342600D02*
Y353600D01*
X826800Y373500D02*
X837800D01*
X832300Y368000D02*
Y379000D01*
X826800Y424300D02*
X837800D01*
X832300Y418800D02*
Y429800D01*
X826800Y449700D02*
X837800D01*
X832300Y444200D02*
Y455200D01*
X826800Y398900D02*
X837800D01*
X832300Y393400D02*
Y404400D01*
X826800Y297300D02*
X837800D01*
X832300Y291800D02*
Y302800D01*
X826800Y271900D02*
X837800D01*
X832300Y266400D02*
Y277400D01*
X826800Y246500D02*
X837800D01*
X832300Y241000D02*
Y252000D01*
X826800Y221100D02*
X837800D01*
X832300Y215600D02*
Y226600D01*
X826800Y195700D02*
X837800D01*
X832300Y190200D02*
Y201200D01*
X826800Y170300D02*
X837800D01*
X832300Y164800D02*
Y175800D01*
X214750Y352300D02*
X225250D01*
X220000Y347050D02*
Y357550D01*
X214750Y447700D02*
X225250D01*
X220000Y442450D02*
Y452950D01*
X114750Y447700D02*
X125250D01*
X120000Y442450D02*
Y452950D01*
X114750Y352300D02*
X125250D01*
X120000Y347050D02*
Y357550D01*
X34500Y300000D02*
X45500D01*
X40000Y294500D02*
Y305500D01*
X34500Y249200D02*
X45500D01*
X40000Y243700D02*
Y254700D01*
X34500Y274600D02*
X45500D01*
X40000Y269100D02*
Y280100D01*
X34500Y325400D02*
X45500D01*
X40000Y319900D02*
Y330900D01*
X34500Y350800D02*
X45500D01*
X40000Y345300D02*
Y356300D01*
X686500Y360000D02*
X693500D01*
X690000Y356500D02*
Y363500D01*
X686500Y283800D02*
X693500D01*
X690000Y280300D02*
Y287300D01*
X416500Y290000D02*
X423500D01*
X420000Y286500D02*
Y293500D01*
X416500Y366200D02*
X423500D01*
X420000Y362700D02*
Y369700D01*
X214750Y200000D02*
X225250D01*
X220000Y194750D02*
Y205250D01*
X214750Y104600D02*
X225250D01*
X220000Y99350D02*
Y109850D01*
X124750Y102300D02*
X135250D01*
X130000Y97050D02*
Y107550D01*
X124750Y197700D02*
X135250D01*
X130000Y192450D02*
Y202950D01*
X575000Y70000D02*
X585000D01*
X580000Y65000D02*
Y75000D01*
X575000Y95400D02*
X585000D01*
X580000Y90400D02*
Y100400D01*
X575000Y120800D02*
X585000D01*
X580000Y115800D02*
Y125800D01*
X686500Y138100D02*
X693500D01*
X690000Y134600D02*
Y141600D01*
X686500Y61900D02*
X693500D01*
X690000Y58400D02*
Y65400D01*
X416500Y138100D02*
X423500D01*
X420000Y134600D02*
Y141600D01*
X416500Y61900D02*
X423500D01*
X420000Y58400D02*
Y65400D01*
X20000Y670000D02*
X40000D01*
X30000Y660000D02*
Y680000D01*
X20000Y30000D02*
X40000D01*
X30000Y20000D02*
Y40000D01*
X930000Y30000D02*
X950000D01*
X940000Y20000D02*
Y40000D01*
X930000Y670000D02*
X950000D01*
X940000Y660000D02*
Y680000D01*
M02*
