G04*
G04 #@! TF.GenerationSoftware,Altium Limited,Altium Designer,23.0.1 (38)*
G04*
G04 Layer_Color=2752767*
%FSLAX44Y44*%
%MOMM*%
G71*
G04*
G04 #@! TF.SameCoordinates,F02949BF-B442-4A25-BC58-536D77071835*
G04*
G04*
G04 #@! TF.FilePolarity,Positive*
G04*
G01*
G75*
%ADD39C,0.1270*%
%ADD40C,0.1693*%
D39*
X564920Y489520D02*
Y499680D01*
X575080D01*
Y489520D01*
X564920D01*
Y514920D02*
Y525080D01*
X575080D01*
Y514920D01*
X564920D01*
Y540320D02*
Y550480D01*
X575080D01*
Y540320D01*
X564920D01*
X570000Y345620D02*
X564920Y355780D01*
X575080D01*
X570000Y345620D01*
Y320270D02*
X564920Y330430D01*
X575080D01*
X570000Y320270D01*
Y294920D02*
X564920Y305080D01*
X575080D01*
X570000Y294920D01*
X832300Y317620D02*
X834840Y320160D01*
X837380D01*
X834840Y322700D01*
X837380Y325240D01*
X834840D01*
X832300Y327780D01*
X829760Y325240D01*
X827220D01*
X829760Y322700D01*
X827220Y320160D01*
X829760D01*
X832300Y317620D01*
Y343020D02*
X834840Y345560D01*
X837380D01*
X834840Y348100D01*
X837380Y350640D01*
X834840D01*
X832300Y353180D01*
X829760Y350640D01*
X827220D01*
X829760Y348100D01*
X827220Y345560D01*
X829760D01*
X832300Y343020D01*
Y368420D02*
X834840Y370960D01*
X837380D01*
X834840Y373500D01*
X837380Y376040D01*
X834840D01*
X832300Y378580D01*
X829760Y376040D01*
X827220D01*
X829760Y373500D01*
X827220Y370960D01*
X829760D01*
X832300Y368420D01*
Y419220D02*
X834840Y421760D01*
X837380D01*
X834840Y424300D01*
X837380Y426840D01*
X834840D01*
X832300Y429380D01*
X829760Y426840D01*
X827220D01*
X829760Y424300D01*
X827220Y421760D01*
X829760D01*
X832300Y419220D01*
Y444620D02*
X834840Y447160D01*
X837380D01*
X834840Y449700D01*
X837380Y452240D01*
X834840D01*
X832300Y454780D01*
X829760Y452240D01*
X827220D01*
X829760Y449700D01*
X827220Y447160D01*
X829760D01*
X832300Y444620D01*
Y393820D02*
X834840Y396360D01*
X837380D01*
X834840Y398900D01*
X837380Y401440D01*
X834840D01*
X832300Y403980D01*
X829760Y401440D01*
X827220D01*
X829760Y398900D01*
X827220Y396360D01*
X829760D01*
X832300Y393820D01*
Y292220D02*
X834840Y294760D01*
X837380D01*
X834840Y297300D01*
X837380Y299840D01*
X834840D01*
X832300Y302380D01*
X829760Y299840D01*
X827220D01*
X829760Y297300D01*
X827220Y294760D01*
X829760D01*
X832300Y292220D01*
Y266820D02*
X834840Y269360D01*
X837380D01*
X834840Y271900D01*
X837380Y274440D01*
X834840D01*
X832300Y276980D01*
X829760Y274440D01*
X827220D01*
X829760Y271900D01*
X827220Y269360D01*
X829760D01*
X832300Y266820D01*
Y241420D02*
X834840Y243960D01*
X837380D01*
X834840Y246500D01*
X837380Y249040D01*
X834840D01*
X832300Y251580D01*
X829760Y249040D01*
X827220D01*
X829760Y246500D01*
X827220Y243960D01*
X829760D01*
X832300Y241420D01*
Y216020D02*
X834840Y218560D01*
X837380D01*
X834840Y221100D01*
X837380Y223640D01*
X834840D01*
X832300Y226180D01*
X829760Y223640D01*
X827220D01*
X829760Y221100D01*
X827220Y218560D01*
X829760D01*
X832300Y216020D01*
Y190620D02*
X834840Y193160D01*
X837380D01*
X834840Y195700D01*
X837380Y198240D01*
X834840D01*
X832300Y200780D01*
X829760Y198240D01*
X827220D01*
X829760Y195700D01*
X827220Y193160D01*
X829760D01*
X832300Y190620D01*
Y165220D02*
X834840Y167760D01*
X837380D01*
X834840Y170300D01*
X837380Y172840D01*
X834840D01*
X832300Y175380D01*
X829760Y172840D01*
X827220D01*
X829760Y170300D01*
X827220Y167760D01*
X829760D01*
X832300Y165220D01*
X214920Y347220D02*
X217460Y352300D01*
X214920Y357380D01*
X220000Y354840D01*
X225080Y357380D01*
X222540Y352300D01*
X225080Y347220D01*
X220000Y349760D01*
X214920Y347220D01*
Y442620D02*
X217460Y447700D01*
X214920Y452780D01*
X220000Y450240D01*
X225080Y452780D01*
X222540Y447700D01*
X225080Y442620D01*
X220000Y445160D01*
X214920Y442620D01*
X114920D02*
X117460Y447700D01*
X114920Y452780D01*
X120000Y450240D01*
X125080Y452780D01*
X122540Y447700D01*
X125080Y442620D01*
X120000Y445160D01*
X114920Y442620D01*
Y347220D02*
X117460Y352300D01*
X114920Y357380D01*
X120000Y354840D01*
X125080Y357380D01*
X122540Y352300D01*
X125080Y347220D01*
X120000Y349760D01*
X114920Y347220D01*
X40000Y294920D02*
X42540Y297460D01*
X45080D01*
X42540Y300000D01*
X45080Y302540D01*
X42540D01*
X40000Y305080D01*
X37460Y302540D01*
X34920D01*
X37460Y300000D01*
X34920Y297460D01*
X37460D01*
X40000Y294920D01*
Y244120D02*
X42540Y246660D01*
X45080D01*
X42540Y249200D01*
X45080Y251740D01*
X42540D01*
X40000Y254280D01*
X37460Y251740D01*
X34920D01*
X37460Y249200D01*
X34920Y246660D01*
X37460D01*
X40000Y244120D01*
Y269520D02*
X42540Y272060D01*
X45080D01*
X42540Y274600D01*
X45080Y277140D01*
X42540D01*
X40000Y279680D01*
X37460Y277140D01*
X34920D01*
X37460Y274600D01*
X34920Y272060D01*
X37460D01*
X40000Y269520D01*
Y320320D02*
X42540Y322860D01*
X45080D01*
X42540Y325400D01*
X45080Y327940D01*
X42540D01*
X40000Y330480D01*
X37460Y327940D01*
X34920D01*
X37460Y325400D01*
X34920Y322860D01*
X37460D01*
X40000Y320320D01*
Y345720D02*
X42540Y348260D01*
X45080D01*
X42540Y350800D01*
X45080Y353340D01*
X42540D01*
X40000Y355880D01*
X37460Y353340D01*
X34920D01*
X37460Y350800D01*
X34920Y348260D01*
X37460D01*
X40000Y345720D01*
X214920Y194920D02*
X217460Y200000D01*
X214920Y205080D01*
X220000Y202540D01*
X225080Y205080D01*
X222540Y200000D01*
X225080Y194920D01*
X220000Y197460D01*
X214920Y194920D01*
Y99520D02*
X217460Y104600D01*
X214920Y109680D01*
X220000Y107140D01*
X225080Y109680D01*
X222540Y104600D01*
X225080Y99520D01*
X220000Y102060D01*
X214920Y99520D01*
X124920Y97220D02*
X127460Y102300D01*
X124920Y107380D01*
X130000Y104840D01*
X135080Y107380D01*
X132540Y102300D01*
X135080Y97220D01*
X130000Y99760D01*
X124920Y97220D01*
Y192620D02*
X127460Y197700D01*
X124920Y202780D01*
X130000Y200240D01*
X135080Y202780D01*
X132540Y197700D01*
X135080Y192620D01*
X130000Y195160D01*
X124920Y192620D01*
X574920Y64920D02*
Y75080D01*
X585080D01*
Y64920D01*
X574920D01*
Y90320D02*
Y100480D01*
X585080D01*
Y90320D01*
X574920D01*
Y115720D02*
Y125880D01*
X585080D01*
Y115720D01*
X574920D01*
X27460Y667460D02*
Y664920D01*
X32540D01*
Y667460D01*
X35080D01*
Y672540D01*
X32540D01*
Y675080D01*
X27460D01*
Y672540D01*
X24920D01*
Y667460D01*
X27460D01*
Y27460D02*
Y24920D01*
X32540D01*
Y27460D01*
X35080D01*
Y32540D01*
X32540D01*
Y35080D01*
X27460D01*
Y32540D01*
X24920D01*
Y27460D01*
X27460D01*
X937460D02*
Y24920D01*
X942540D01*
Y27460D01*
X945080D01*
Y32540D01*
X942540D01*
Y35080D01*
X937460D01*
Y32540D01*
X934920D01*
Y27460D01*
X937460D01*
Y667460D02*
Y664920D01*
X942540D01*
Y667460D01*
X945080D01*
Y672540D01*
X942540D01*
Y675080D01*
X937460D01*
Y672540D01*
X934920D01*
Y667460D01*
X937460D01*
D40*
X695080Y471900D02*
G03*
X695080Y471900I-5080J0D01*
G01*
Y548100D02*
G03*
X695080Y548100I-5080J0D01*
G01*
X425080Y538100D02*
G03*
X425080Y538100I-5080J0D01*
G01*
Y461900D02*
G03*
X425080Y461900I-5080J0D01*
G01*
X695080Y360000D02*
G03*
X695080Y360000I-5080J0D01*
G01*
Y283800D02*
G03*
X695080Y283800I-5080J0D01*
G01*
X425080Y290000D02*
G03*
X425080Y290000I-5080J0D01*
G01*
Y366200D02*
G03*
X425080Y366200I-5080J0D01*
G01*
X695080Y138100D02*
G03*
X695080Y138100I-5080J0D01*
G01*
Y61900D02*
G03*
X695080Y61900I-5080J0D01*
G01*
X425080Y138100D02*
G03*
X425080Y138100I-5080J0D01*
G01*
Y61900D02*
G03*
X425080Y61900I-5080J0D01*
G01*
M02*
