G04*
G04 #@! TF.GenerationSoftware,Altium Limited,Altium Designer,23.0.1 (38)*
G04*
G04 Layer_Color=255*
%FSLAX44Y44*%
%MOMM*%
G71*
G04*
G04 #@! TF.SameCoordinates,F02949BF-B442-4A25-BC58-536D77071835*
G04*
G04*
G04 #@! TF.FilePolarity,Positive*
G04*
G01*
G75*
%ADD17C,2.0500*%
%ADD18R,2.0500X2.0500*%
%ADD26C,1.6000*%
%ADD27R,1.6000X1.6000*%
%ADD28C,1.2000*%
%ADD29C,1.6500*%
%ADD30R,1.6500X1.6500*%
%ADD31C,1.5500*%
%ADD32R,1.6000X1.6000*%
%ADD33R,1.6000X1.6000*%
%ADD34C,1.6000*%
D17*
X570000Y350700D02*
D03*
Y325350D02*
D03*
D18*
Y300000D02*
D03*
D26*
Y494600D02*
D03*
Y520000D02*
D03*
X40000Y300000D02*
D03*
Y274600D02*
D03*
Y325400D02*
D03*
Y350800D02*
D03*
D27*
X570000Y545400D02*
D03*
D28*
X690000Y471900D02*
D03*
Y548100D02*
D03*
X420000Y538100D02*
D03*
Y461900D02*
D03*
X690000Y360000D02*
D03*
Y283800D02*
D03*
X420000Y290000D02*
D03*
Y366200D02*
D03*
X690000Y138100D02*
D03*
Y61900D02*
D03*
X420000Y138100D02*
D03*
Y61900D02*
D03*
D29*
X832300Y322700D02*
D03*
Y348100D02*
D03*
Y373500D02*
D03*
Y424300D02*
D03*
Y398900D02*
D03*
Y297300D02*
D03*
Y271900D02*
D03*
Y246500D02*
D03*
Y221100D02*
D03*
Y195700D02*
D03*
Y170300D02*
D03*
D30*
Y449700D02*
D03*
D31*
X220000Y352300D02*
D03*
Y447700D02*
D03*
X120000D02*
D03*
Y352300D02*
D03*
X220000Y200000D02*
D03*
Y104600D02*
D03*
X130000Y102300D02*
D03*
Y197700D02*
D03*
D32*
X40000Y249200D02*
D03*
D33*
X580000Y70000D02*
D03*
D34*
Y95400D02*
D03*
Y120800D02*
D03*
M02*
