M48
;Layer_Color=9474304
;FILE_FORMAT=4:4
METRIC,LZ
;TYPE=PLATED
T1F00S00C0.7000
T2F00S00C1.0000
T3F00S00C1.0500
T4F00S00C1.1000
T5F00S00C1.3500
T6F00S00C2.0000
%
T01
X0042Y000619
Y001381
Y0029
X0069Y002838
Y001381
Y000619
Y0036
Y004719
Y005481
X0042Y005381
Y004619
Y003662
T02
X0058Y0007
Y000954
Y001208
X0057Y004946
Y0052
Y005454
T03
X0013Y001023
X0022Y001046
Y002
X0013Y001977
X0012Y003523
Y004477
X0022
Y003523
T04
X008323Y001703
Y001957
Y002211
Y002465
Y002719
X0004Y002746
Y002492
Y003
Y003254
Y003508
X008323Y003481
Y003227
Y002973
Y003735
Y003989
Y004243
Y004497
T05
X0057Y003
Y0032535
Y003507
T06
X0094Y0003
X0003
Y0067
X0094
M30
