G04*
G04 #@! TF.GenerationSoftware,Altium Limited,Altium Designer,23.0.1 (38)*
G04*
G04 Layer_Color=8388736*
%FSLAX44Y44*%
%MOMM*%
G71*
G04*
G04 #@! TF.SameCoordinates,F02949BF-B442-4A25-BC58-536D77071835*
G04*
G04*
G04 #@! TF.FilePolarity,Negative*
G04*
G01*
G75*
%ADD14C,1.8032*%
%ADD15R,1.8032X1.8032*%
%ADD16C,1.4032*%
%ADD17C,2.0500*%
%ADD18R,2.0500X2.0500*%
%ADD19C,1.8532*%
%ADD20R,1.8532X1.8532*%
%ADD21C,1.7532*%
%ADD22R,1.8032X1.8032*%
%ADD23R,1.8032X1.8032*%
%ADD24C,1.8032*%
%ADD25C,2.7032*%
D14*
X570000Y494600D02*
D03*
Y520000D02*
D03*
X40000Y300000D02*
D03*
Y274600D02*
D03*
Y325400D02*
D03*
Y350800D02*
D03*
D15*
X570000Y545400D02*
D03*
D16*
X690000Y471900D02*
D03*
Y548100D02*
D03*
X420000Y538100D02*
D03*
Y461900D02*
D03*
X690000Y360000D02*
D03*
Y283800D02*
D03*
X420000Y290000D02*
D03*
Y366200D02*
D03*
X690000Y138100D02*
D03*
Y61900D02*
D03*
X420000Y138100D02*
D03*
Y61900D02*
D03*
D17*
X570000Y350700D02*
D03*
Y325350D02*
D03*
D18*
Y300000D02*
D03*
D19*
X832300Y322700D02*
D03*
Y348100D02*
D03*
Y373500D02*
D03*
Y424300D02*
D03*
Y398900D02*
D03*
Y297300D02*
D03*
Y271900D02*
D03*
Y246500D02*
D03*
Y221100D02*
D03*
Y195700D02*
D03*
Y170300D02*
D03*
D20*
Y449700D02*
D03*
D21*
X220000Y352300D02*
D03*
Y447700D02*
D03*
X120000D02*
D03*
Y352300D02*
D03*
X220000Y200000D02*
D03*
Y104600D02*
D03*
X130000Y102300D02*
D03*
Y197700D02*
D03*
D22*
X40000Y249200D02*
D03*
D23*
X580000Y70000D02*
D03*
D24*
Y95400D02*
D03*
Y120800D02*
D03*
D25*
X30000Y670000D02*
D03*
Y30000D02*
D03*
X940000D02*
D03*
Y670000D02*
D03*
M02*
