G04*
G04 #@! TF.GenerationSoftware,Altium Limited,Altium Designer,23.0.1 (38)*
G04*
G04 Layer_Color=32768*
%FSLAX44Y44*%
%MOMM*%
G71*
G04*
G04 #@! TF.SameCoordinates,F02949BF-B442-4A25-BC58-536D77071835*
G04*
G04*
G04 #@! TF.FilePolarity,Positive*
G04*
G01*
G75*
%ADD37C,0.1000*%
%ADD38C,0.0500*%
D37*
X570000Y515000D02*
Y525000D01*
X565000Y520000D02*
X575000D01*
X580000Y90400D02*
Y100400D01*
X575000Y95400D02*
X585000D01*
D38*
X547100Y466500D02*
X599100D01*
X547100Y573500D02*
X599100D01*
Y466500D02*
Y573500D01*
X547100Y466500D02*
Y573500D01*
X860000Y305000D02*
Y315000D01*
X855000Y310000D02*
X865000D01*
X822050Y154100D02*
Y465900D01*
X934700D01*
Y154100D02*
Y465900D01*
X822050Y154100D02*
X934700D01*
X40000Y295000D02*
Y305000D01*
X35000Y300000D02*
X45000D01*
X24550Y233000D02*
Y367000D01*
X55450D01*
Y233000D02*
Y367000D01*
X24550Y233000D02*
X55450D01*
X550500Y149900D02*
X599500D01*
X550500Y40900D02*
X599500D01*
Y149900D01*
X550500Y40900D02*
Y149900D01*
M02*
