M48
;Layer_Color=9474304
;FILE_FORMAT=4:4
METRIC,LZ
;TYPE=PLATED
T1F00S00C0.8000
T2F00S00C0.8500
T3F00S00C0.9000
T4F00S00C1.0200
T5F00S00C1.1000
T6F00S00C1.1900
T7F00S00C1.5000
T8F00S00C2.0000
%
T01
X0006Y0009
X0008
X001
T02
X00395Y0012
X00415Y0018
X00505
X00555
X00645
X00605Y0012
X00515
X00485Y0012
X0033Y00115
X00275Y001
X00185
X00135Y0015
Y0022
X00045
Y0015
X00215Y0031
X00305
X0033Y00205
X0038Y00465
Y00555
X00325Y0063
X00235
X0019Y00565
X0014Y00565
Y00475
X0019
X0053Y0044
X0062
T03
X004038Y002819
X004292
X004546
X0048
X005054
X005308
X005562
X0053Y0024
X0037Y002205
X0026Y002146
Y001892
Y0024
Y002654
X001838
Y0024
Y002146
Y001892
X0024Y0035
X0027Y0042
X0033Y0044
X003181Y004819
Y005073
Y005327
Y005581
X002419
Y005327
Y005073
Y004819
X0044Y0048
X0050303Y0042697
X005054Y003581
X0048
X004546
X004292
X004038
X005308
X005562
X006Y0032
X0064Y0041
T04
X005038Y0057
X005292
X005546
X0058
T05
X0033Y0006
X00095Y00355
Y00405
X00045Y0038
T06
X0006Y005146
Y0054
T07
X003Y0019
T08
X0067Y0003
X0003
Y0067
X0067
M30
