G04*
G04 #@! TF.GenerationSoftware,Altium Limited,Altium Designer,23.1.1 (15)*
G04*
G04 Layer_Physical_Order=1*
G04 Layer_Color=255*
%FSLAX44Y44*%
%MOMM*%
G71*
G04*
G04 #@! TF.SameCoordinates,A873AAFA-6C65-4712-A0E8-E9F7B2878B64*
G04*
G04*
G04 #@! TF.FilePolarity,Positive*
G04*
G01*
G75*
%ADD28R,1.3000X1.3000*%
%ADD29C,1.3000*%
%ADD33C,1.0000*%
%ADD34C,1.5000*%
%ADD35R,1.5000X1.5000*%
%ADD36R,1.5000X1.5000*%
%ADD37C,1.3500*%
%ADD38R,1.3500X1.3500*%
%ADD39C,1.3700*%
%ADD40R,1.3700X1.3700*%
%ADD41C,1.7000*%
%ADD42R,1.7000X1.7000*%
%ADD43R,1.3500X1.3500*%
%ADD44C,1.6500*%
%ADD45R,1.6500X1.6500*%
%ADD46C,1.6000*%
%ADD47C,2.5000*%
%ADD48C,1.8000*%
%ADD49C,2.0000*%
D28*
X100000Y90000D02*
D03*
D29*
X80000D02*
D03*
X60000D02*
D03*
D33*
X350000Y460000D02*
Y490000D01*
X330000Y440000D02*
X350000Y460000D01*
Y490000D02*
X476487Y616487D01*
X553513D01*
X318100Y480547D02*
Y481900D01*
X320000Y240000D02*
X500000D01*
X234136Y290864D02*
X269136D01*
X320000Y240000D01*
X215000Y310000D02*
X234136Y290864D01*
X415670Y180670D02*
X440670D01*
X500000Y240000D01*
X530000D01*
X370000Y193392D02*
Y220500D01*
Y193392D02*
X370392Y193000D01*
Y55858D02*
Y193000D01*
X598850Y551150D02*
X640000Y510000D01*
Y410000D02*
Y510000D01*
X572192Y551150D02*
X598850D01*
X420500Y500500D02*
X471150Y551150D01*
X420500Y478983D02*
Y500500D01*
X471150Y551150D02*
X537008D01*
X450957Y479043D02*
X503030Y426970D01*
X440957Y479043D02*
X450957D01*
X440000Y480000D02*
X440957Y479043D01*
X361517Y420000D02*
X420500Y478983D01*
X270000Y420000D02*
X361517D01*
X240000Y387835D02*
X270000Y417835D01*
X240000Y350000D02*
Y387835D01*
X270000Y417835D02*
Y420000D01*
X245000Y40000D02*
X354534D01*
X185000Y100000D02*
X245000Y40000D01*
X354534D02*
X370392Y55858D01*
X300000Y90000D02*
X330000Y60000D01*
X300000Y90000D02*
Y190000D01*
X537008Y551150D02*
X548050Y562192D01*
Y562292D01*
X548050Y562292D01*
Y562449D01*
X554600Y568999D02*
Y570000D01*
X548050Y562449D02*
X554600Y568999D01*
X601110Y320000D02*
X620000Y338891D01*
Y440000D01*
X600000Y320000D02*
X601110D01*
X415000Y180000D02*
X415670Y180670D01*
X561150Y562192D02*
X572192Y551150D01*
X554600Y568999D02*
X561150Y562449D01*
Y562192D02*
Y562449D01*
X183800Y240000D02*
X185153D01*
X553513Y616487D02*
X580000Y590000D01*
Y570000D02*
Y590000D01*
X241900Y481900D02*
X242857Y480943D01*
D34*
X403800Y281900D02*
D03*
X429200D02*
D03*
X454600D02*
D03*
X480000D02*
D03*
X505400D02*
D03*
X530800D02*
D03*
X556200D02*
D03*
X403800Y358100D02*
D03*
X429200D02*
D03*
X454600D02*
D03*
X480000D02*
D03*
X505400D02*
D03*
X530800D02*
D03*
X260000Y189200D02*
D03*
Y214600D02*
D03*
Y240000D02*
D03*
Y265400D02*
D03*
X183800Y189200D02*
D03*
Y214600D02*
D03*
Y240000D02*
D03*
X318100Y481900D02*
D03*
Y507300D02*
D03*
Y532700D02*
D03*
Y558100D02*
D03*
X241900Y481900D02*
D03*
Y507300D02*
D03*
Y532700D02*
D03*
X330000Y440000D02*
D03*
X370000Y220500D02*
D03*
X440000Y480000D02*
D03*
X640000Y410000D02*
D03*
X600000Y320000D02*
D03*
X530000Y240000D02*
D03*
X503030Y426970D02*
D03*
X240000Y350000D02*
D03*
D35*
X556200Y358100D02*
D03*
D36*
X183800Y265400D02*
D03*
X241900Y558100D02*
D03*
D37*
X305000Y310000D02*
D03*
X605000Y120000D02*
D03*
X380000Y465000D02*
D03*
X530000Y440000D02*
D03*
X190000Y475000D02*
D03*
X275000Y100000D02*
D03*
X485000Y120000D02*
D03*
X330000Y115000D02*
D03*
X415000Y180000D02*
D03*
X235000Y630000D02*
D03*
X555000Y180000D02*
D03*
X140000Y475000D02*
D03*
X45000Y150000D02*
D03*
Y220000D02*
D03*
D38*
X215000Y310000D02*
D03*
X515000Y120000D02*
D03*
X620000Y440000D02*
D03*
X185000Y100000D02*
D03*
X395000Y120000D02*
D03*
X505000Y180000D02*
D03*
X325000Y630000D02*
D03*
X645000Y180000D02*
D03*
X135000Y150000D02*
D03*
Y220000D02*
D03*
D39*
X580000Y570000D02*
D03*
X554600D02*
D03*
X529200D02*
D03*
D40*
X503800D02*
D03*
D41*
X60000Y514600D02*
D03*
D42*
Y540000D02*
D03*
D43*
X380000Y555000D02*
D03*
X190000Y565000D02*
D03*
X330000Y205000D02*
D03*
X140000Y565000D02*
D03*
D44*
X95000Y405000D02*
D03*
X45000Y380000D02*
D03*
D45*
X95000Y355000D02*
D03*
D46*
X330000Y60000D02*
D03*
D47*
X30000Y30000D02*
D03*
X670000D02*
D03*
Y670000D02*
D03*
X30000D02*
D03*
D48*
X270000Y420000D02*
D03*
D49*
X300000Y190000D02*
D03*
M02*
