G04*
G04 #@! TF.GenerationSoftware,Altium Limited,Altium Designer,23.1.1 (15)*
G04*
G04 Layer_Physical_Order=2*
G04 Layer_Color=16711680*
%FSLAX44Y44*%
%MOMM*%
G71*
G04*
G04 #@! TF.SameCoordinates,A873AAFA-6C65-4712-A0E8-E9F7B2878B64*
G04*
G04*
G04 #@! TF.FilePolarity,Positive*
G04*
G01*
G75*
%ADD28R,1.3000X1.3000*%
%ADD29C,1.3000*%
%ADD33C,1.0000*%
%ADD34C,1.5000*%
%ADD35R,1.5000X1.5000*%
%ADD36R,1.5000X1.5000*%
%ADD37C,1.3500*%
%ADD38R,1.3500X1.3500*%
%ADD39C,1.3700*%
%ADD40R,1.3700X1.3700*%
%ADD41C,1.7000*%
%ADD42R,1.7000X1.7000*%
%ADD43R,1.3500X1.3500*%
%ADD44C,1.6500*%
%ADD45R,1.6500X1.6500*%
%ADD46C,1.6000*%
%ADD47C,2.5000*%
%ADD48C,1.8000*%
%ADD49C,2.0000*%
D28*
X100000Y90000D02*
D03*
D29*
X80000D02*
D03*
X60000D02*
D03*
D33*
X155000Y110000D02*
X175000D01*
X185000Y100000D01*
X135000Y130000D02*
X155000Y110000D01*
X135000Y130000D02*
Y150000D01*
X261517Y60000D02*
X291517Y90000D01*
X194529Y60000D02*
X261517D01*
X164529Y90000D02*
X194529Y60000D01*
X98500Y90000D02*
X164529D01*
X307674D02*
X329330Y111656D01*
X291517Y90000D02*
X307674D01*
X60000Y33814D02*
X72958Y20856D01*
X45000Y105000D02*
X60000Y90000D01*
Y33814D02*
Y90000D01*
X45000Y105000D02*
Y150000D01*
X80000Y86185D02*
Y144142D01*
X105858Y170000D01*
X532372Y20856D02*
X645000Y133483D01*
X72958Y20856D02*
X532372D01*
X203300Y175858D02*
Y197277D01*
X175723Y169700D02*
X197142D01*
X105858Y170000D02*
X175423D01*
X175723Y169700D01*
X197142D02*
X203300Y175858D01*
X318100Y453253D02*
X330000Y441353D01*
X318100Y453253D02*
Y481900D01*
X330000Y440000D02*
Y441353D01*
X267300Y507300D02*
X292700Y481900D01*
X318100D01*
X530800Y358100D02*
X556200D01*
X554806Y283295D02*
X605000Y233100D01*
Y120000D02*
Y233100D01*
X340000Y160000D02*
X372065Y192065D01*
X320000Y160000D02*
X340000D01*
X371032Y191033D02*
X403800Y223800D01*
Y281900D01*
X370000Y220500D02*
Y294142D01*
X289200Y160000D02*
X320000D01*
X360000Y120000D02*
X395000D01*
X320000Y160000D02*
X360000Y120000D01*
X620000Y570000D02*
X660000Y530000D01*
X645000Y245000D02*
X660000Y260000D01*
Y530000D01*
X470000Y477577D02*
Y536200D01*
X402423Y410000D02*
X470000Y477577D01*
X410000Y480000D02*
X440000D01*
X386958Y410000D02*
X402423D01*
X190000Y410000D02*
X201000Y399000D01*
X375958D02*
X386958Y410000D01*
X241900Y448100D02*
Y481900D01*
X201000Y399000D02*
X375958D01*
X241900Y448100D02*
X270000Y420000D01*
X45000Y380000D02*
X434877D01*
X125000Y580000D02*
X140000Y565000D01*
X90000Y580000D02*
X125000D01*
X63500Y553500D02*
X90000Y580000D01*
X63500Y543500D02*
Y553500D01*
X60000Y540000D02*
X63500Y543500D01*
X189989Y210589D02*
X203300Y197277D01*
X164300Y314300D02*
X199090Y349090D01*
X164300Y206523D02*
X175723Y195100D01*
X164300Y206523D02*
Y314300D01*
X233104Y141896D02*
X275000Y100000D01*
X191877Y234100D02*
X233104Y192873D01*
X191053Y234100D02*
X191877D01*
X185153Y240000D02*
X191053Y234100D01*
X183800Y240000D02*
X185153D01*
X233104Y141896D02*
Y192873D01*
X199090Y349090D02*
X239090D01*
X176547Y195100D02*
X182447Y189200D01*
X175723Y195100D02*
X176547D01*
X182447Y189200D02*
X183800D01*
X239090Y349090D02*
X240000Y350000D01*
X182447Y214600D02*
X183800D01*
X529200Y480717D02*
Y570000D01*
X470000Y421517D02*
X529200Y480717D01*
X529150Y570000D02*
Y580850D01*
X480000Y358100D02*
Y359453D01*
Y334042D02*
Y358100D01*
X639388Y409388D02*
X640000Y410000D01*
X639388Y387500D02*
Y409388D01*
X590488Y338600D02*
X639388Y387500D01*
X541323Y320000D02*
X600000D01*
X543730Y338600D02*
X590488D01*
X511300Y289977D02*
X541323Y320000D01*
X505400Y224600D02*
Y283253D01*
X511300Y289153D02*
Y289977D01*
X505400Y283253D02*
X511300Y289153D01*
X508600Y338600D02*
X543729D01*
X480000Y281900D02*
Y310000D01*
X508600Y338600D01*
X465958Y320000D02*
X480000Y334042D01*
X371816Y320000D02*
X465958D01*
X543729Y338600D02*
X543730Y338600D01*
X530400Y240400D02*
Y281500D01*
X530800Y281900D01*
X530000Y240000D02*
X530400Y240400D01*
X505400Y224600D02*
X549330Y180670D01*
X554330D02*
X555000Y180000D01*
X549330Y180670D02*
X554330D01*
X429200Y269712D02*
X450500Y248412D01*
Y131011D02*
X461511Y120000D01*
X450500Y131011D02*
Y248412D01*
X429200Y269712D02*
Y281900D01*
X337535Y285719D02*
X371816Y320000D01*
X337535Y277535D02*
Y285719D01*
X454600Y281900D02*
Y283253D01*
X370000Y294142D02*
X377258Y301400D01*
X437277D01*
X448700Y289153D02*
Y289977D01*
Y289153D02*
X454600Y283253D01*
X437277Y301400D02*
X448700Y289977D01*
X310000Y250000D02*
X337535Y277535D01*
X461511Y120000D02*
X485000D01*
X505400Y358100D02*
Y374600D01*
X490000Y390000D02*
X505400Y374600D01*
X490000Y390000D02*
Y412587D01*
X503030Y425617D01*
X470000Y370277D02*
Y421517D01*
Y370277D02*
X474100Y366177D01*
Y365353D02*
X480000Y359453D01*
X474100Y365353D02*
Y366177D01*
X503030Y425617D02*
Y426970D01*
X530400Y358500D02*
X530800Y358100D01*
X530000Y440000D02*
X530400Y439600D01*
Y358500D02*
Y439600D01*
X580000Y570000D02*
X620000D01*
X403800Y358100D02*
X429200D01*
X332000Y337000D02*
X382700D01*
X305000Y310000D02*
X332000Y337000D01*
X382700D02*
X403800Y358100D01*
X448700Y365353D02*
Y366177D01*
Y365353D02*
X454600Y359453D01*
X434877Y380000D02*
X448700Y366177D01*
X454600Y358100D02*
Y359453D01*
X380000Y510000D02*
X410000Y480000D01*
X380000Y510000D02*
Y555000D01*
X340000Y215000D02*
Y275071D01*
X330000Y205000D02*
X340000Y215000D01*
X267253Y259500D02*
X268077D01*
X277577Y250000D02*
X310000D01*
X260000Y265400D02*
X261353D01*
X268077Y259500D02*
X277577Y250000D01*
X261353Y265400D02*
X267253Y259500D01*
X260957Y213643D02*
X276357D01*
X300000Y190000D01*
X260000Y214600D02*
X260957Y213643D01*
X260000Y189200D02*
X289200Y160000D01*
X260000Y214600D02*
Y240000D01*
X183800D02*
Y265400D01*
X329330Y111656D02*
Y114330D01*
X330000Y115000D01*
X45000Y150000D02*
Y220000D01*
X115000Y275000D02*
Y335000D01*
X135143Y221607D02*
Y254856D01*
X115000Y275000D02*
X135143Y254856D01*
X95000Y355000D02*
X115000Y335000D01*
X506750Y178250D02*
X521750D01*
X580000Y120000D02*
X605000D01*
X521750Y178250D02*
X580000Y120000D01*
X505000Y180000D02*
X506750Y178250D01*
X645000Y160000D02*
Y180000D01*
Y160000D02*
X645000Y160000D01*
X645000Y180000D02*
Y245000D01*
X470000Y536200D02*
X503800Y570000D01*
X318100Y558325D02*
X359775Y600000D01*
X510000D02*
X529150Y580850D01*
X359775Y600000D02*
X510000D01*
X140000Y475000D02*
X190000D01*
X125000D02*
X140000D01*
X318100Y558100D02*
Y558325D01*
X95000Y405000D02*
Y445000D01*
X125000Y475000D01*
X190000Y410000D02*
Y475000D01*
X196750Y563250D02*
X227300Y532700D01*
X241900D01*
X191750Y563250D02*
X196750D01*
X190000Y565000D02*
X191750Y563250D01*
X39500Y579500D02*
X90000Y630000D01*
X331743Y508257D02*
X374330Y465670D01*
X379330D01*
X380000Y465000D01*
X319057Y508257D02*
X331743D01*
X332700Y532700D02*
X354044Y554044D01*
X318100Y532700D02*
X332700D01*
X354044Y554044D02*
X357946D01*
Y554044D02*
X379043D01*
X310023Y513200D02*
X310847D01*
X316747Y507300D02*
X318100D01*
X310847Y513200D02*
X316747Y507300D01*
X298376Y524847D02*
X310023Y513200D01*
X298376Y524847D02*
Y603376D01*
X268376Y558100D02*
X280000Y569724D01*
X241900Y558100D02*
X268376D01*
X280000Y569724D02*
Y610000D01*
X260000Y630000D02*
X280000Y610000D01*
X318100Y507300D02*
X319057Y508257D01*
X241900Y507300D02*
X267300D01*
X379043Y554044D02*
X380000Y555000D01*
X298376Y603376D02*
X325000Y630000D01*
X235000D02*
X260000D01*
X90000D02*
X235000D01*
X39500Y526530D02*
Y579500D01*
X645000Y133483D02*
Y160000D01*
X485000Y120000D02*
X515000D01*
X39500Y526530D02*
X50090Y515939D01*
X58661D01*
X60000Y514600D01*
X140000Y565000D02*
X190000D01*
X485000Y120000D02*
X485000Y120000D01*
D34*
X403800Y281900D02*
D03*
X429200D02*
D03*
X454600D02*
D03*
X480000D02*
D03*
X505400D02*
D03*
X530800D02*
D03*
X556200D02*
D03*
X403800Y358100D02*
D03*
X429200D02*
D03*
X454600D02*
D03*
X480000D02*
D03*
X505400D02*
D03*
X530800D02*
D03*
X260000Y189200D02*
D03*
Y214600D02*
D03*
Y240000D02*
D03*
Y265400D02*
D03*
X183800Y189200D02*
D03*
Y214600D02*
D03*
Y240000D02*
D03*
X318100Y481900D02*
D03*
Y507300D02*
D03*
Y532700D02*
D03*
Y558100D02*
D03*
X241900Y481900D02*
D03*
Y507300D02*
D03*
Y532700D02*
D03*
X330000Y440000D02*
D03*
X370000Y220500D02*
D03*
X440000Y480000D02*
D03*
X640000Y410000D02*
D03*
X600000Y320000D02*
D03*
X530000Y240000D02*
D03*
X503030Y426970D02*
D03*
X240000Y350000D02*
D03*
D35*
X556200Y358100D02*
D03*
D36*
X183800Y265400D02*
D03*
X241900Y558100D02*
D03*
D37*
X305000Y310000D02*
D03*
X605000Y120000D02*
D03*
X380000Y465000D02*
D03*
X530000Y440000D02*
D03*
X190000Y475000D02*
D03*
X275000Y100000D02*
D03*
X485000Y120000D02*
D03*
X330000Y115000D02*
D03*
X415000Y180000D02*
D03*
X235000Y630000D02*
D03*
X555000Y180000D02*
D03*
X140000Y475000D02*
D03*
X45000Y150000D02*
D03*
Y220000D02*
D03*
D38*
X215000Y310000D02*
D03*
X515000Y120000D02*
D03*
X620000Y440000D02*
D03*
X185000Y100000D02*
D03*
X395000Y120000D02*
D03*
X505000Y180000D02*
D03*
X325000Y630000D02*
D03*
X645000Y180000D02*
D03*
X135000Y150000D02*
D03*
Y220000D02*
D03*
D39*
X580000Y570000D02*
D03*
X554600D02*
D03*
X529200D02*
D03*
D40*
X503800D02*
D03*
D41*
X60000Y514600D02*
D03*
D42*
Y540000D02*
D03*
D43*
X380000Y555000D02*
D03*
X190000Y565000D02*
D03*
X330000Y205000D02*
D03*
X140000Y565000D02*
D03*
D44*
X95000Y405000D02*
D03*
X45000Y380000D02*
D03*
D45*
X95000Y355000D02*
D03*
D46*
X330000Y60000D02*
D03*
D47*
X30000Y30000D02*
D03*
X670000D02*
D03*
Y670000D02*
D03*
X30000D02*
D03*
D48*
X270000Y420000D02*
D03*
D49*
X300000Y190000D02*
D03*
M02*
