G04*
G04 #@! TF.GenerationSoftware,Altium Limited,Altium Designer,23.1.1 (15)*
G04*
G04 Layer_Color=32768*
%FSLAX44Y44*%
%MOMM*%
G71*
G04*
G04 #@! TF.SameCoordinates,A873AAFA-6C65-4712-A0E8-E9F7B2878B64*
G04*
G04*
G04 #@! TF.FilePolarity,Positive*
G04*
G01*
G75*
%ADD52C,0.1000*%
%ADD53C,0.0500*%
D52*
X475000Y320000D02*
X485000D01*
X480000Y315000D02*
Y325000D01*
X221900Y222300D02*
Y232300D01*
X216900Y227300D02*
X226900D01*
X255000Y310000D02*
X265000D01*
X260000Y305000D02*
Y315000D01*
X555000Y120000D02*
X565000D01*
X560000Y115000D02*
Y125000D01*
X55000Y527300D02*
X65000D01*
X60000Y522300D02*
Y532300D01*
X380000Y505000D02*
Y515000D01*
X375000Y510000D02*
X385000D01*
X570000Y440000D02*
X580000D01*
X575000Y435000D02*
Y445000D01*
X280000Y515000D02*
Y525000D01*
X275000Y520000D02*
X285000D01*
X190000Y515000D02*
Y525000D01*
X185000Y520000D02*
X195000D01*
X225000Y100000D02*
X235000D01*
X230000Y95000D02*
Y105000D01*
X435000Y120000D02*
X445000D01*
X440000Y115000D02*
Y125000D01*
X330000Y155000D02*
Y165000D01*
X325000Y160000D02*
X335000D01*
X455000Y180000D02*
X465000D01*
X460000Y175000D02*
Y185000D01*
X275000Y630000D02*
X285000D01*
X280000Y625000D02*
Y635000D01*
X595000Y180000D02*
X605000D01*
X600000Y175000D02*
Y185000D01*
X140000Y515000D02*
Y525000D01*
X135000Y520000D02*
X145000D01*
X85000Y150000D02*
X95000D01*
X90000Y145000D02*
Y155000D01*
X85000Y220000D02*
X95000D01*
X90000Y215000D02*
Y225000D01*
D53*
X379000Y271500D02*
Y368500D01*
X581000Y271500D02*
Y368500D01*
X379000Y271500D02*
X581000D01*
X379000Y368500D02*
X581000D01*
X173400Y173800D02*
X270400D01*
X173400Y280800D02*
X270400D01*
Y173800D02*
Y280800D01*
X173400Y173800D02*
Y280800D01*
X207250Y297000D02*
Y323000D01*
Y297000D02*
X312750D01*
X207250Y323000D02*
X312750D01*
Y297000D02*
Y323000D01*
X507250Y107000D02*
Y133000D01*
Y107000D02*
X612750D01*
X507250Y133000D02*
X612750D01*
Y107000D02*
Y133000D01*
X488600Y554800D02*
X595200D01*
Y585200D01*
X488600D02*
X595200D01*
X488600Y554800D02*
Y585200D01*
X30000Y500898D02*
X90000D01*
X30000Y553698D02*
X90000D01*
X30000Y500898D02*
Y553698D01*
X90000Y500898D02*
Y553698D01*
X367000Y562750D02*
X393000D01*
X367000Y457250D02*
Y562750D01*
X393000Y457250D02*
Y562750D01*
X367000Y457250D02*
X393000D01*
X627750Y427000D02*
Y453000D01*
X522250D02*
X627750D01*
X522250Y427000D02*
X627750D01*
X522250D02*
Y453000D01*
X231500Y466500D02*
X328500D01*
X231500Y573500D02*
X328500D01*
Y466500D02*
Y573500D01*
X231500Y466500D02*
Y573500D01*
X177000Y572750D02*
X203000D01*
X177000Y467250D02*
Y572750D01*
X203000Y467250D02*
Y572750D01*
X177000Y467250D02*
X203000D01*
X177250Y87000D02*
Y113000D01*
Y87000D02*
X282750D01*
X177250Y113000D02*
X282750D01*
Y87000D02*
Y113000D01*
X387250Y107000D02*
Y133000D01*
Y107000D02*
X492750D01*
X387250Y133000D02*
X492750D01*
Y107000D02*
Y133000D01*
X317000Y212750D02*
X343000D01*
X317000Y107250D02*
Y212750D01*
X343000Y107250D02*
Y212750D01*
X317000Y107250D02*
X343000D01*
X512750Y167000D02*
Y193000D01*
X407250D02*
X512750D01*
X407250Y167000D02*
X512750D01*
X407250D02*
Y193000D01*
X33500Y416500D02*
X119500D01*
X33500Y343500D02*
Y416500D01*
Y343500D02*
X119500D01*
Y416500D01*
X332750Y617000D02*
Y643000D01*
X227250D02*
X332750D01*
X227250Y617000D02*
X332750D01*
X227250D02*
Y643000D01*
X652750Y167000D02*
Y193000D01*
X547250D02*
X652750D01*
X547250Y167000D02*
X652750D01*
X547250D02*
Y193000D01*
X313800Y44550D02*
Y75450D01*
Y44550D02*
X346200D01*
Y75450D01*
X313800D02*
X346200D01*
X330000Y55000D02*
Y65000D01*
X325000Y60000D02*
X335000D01*
X127000Y572750D02*
X153000D01*
X127000Y467250D02*
Y572750D01*
X153000Y467250D02*
Y572750D01*
X127000Y467250D02*
X153000D01*
X142750Y137000D02*
Y163000D01*
X37250D02*
X142750D01*
X37250Y137000D02*
X142750D01*
X37250D02*
Y163000D01*
X142750Y207000D02*
Y233000D01*
X37250D02*
X142750D01*
X37250Y207000D02*
X142750D01*
X37250D02*
Y233000D01*
M02*
