G04*
G04 #@! TF.GenerationSoftware,Altium Limited,Altium Designer,23.1.1 (15)*
G04*
G04 Layer_Color=16711935*
%FSLAX44Y44*%
%MOMM*%
G71*
G04*
G04 #@! TF.SameCoordinates,A873AAFA-6C65-4712-A0E8-E9F7B2878B64*
G04*
G04*
G04 #@! TF.FilePolarity,Positive*
G04*
G01*
G75*
%ADD12C,0.2000*%
G36*
X80000Y85466D02*
X79288D01*
Y86076D01*
X79279Y86058D01*
X79242Y86021D01*
X79196Y85956D01*
X79122Y85882D01*
X79038Y85789D01*
X78946Y85706D01*
X78835Y85623D01*
X78724Y85549D01*
X78706Y85540D01*
X78669Y85521D01*
X78595Y85494D01*
X78502Y85457D01*
X78391Y85420D01*
X78262Y85392D01*
X78114Y85373D01*
X77947Y85364D01*
X77846D01*
X77800Y85373D01*
X77735Y85383D01*
X77596Y85401D01*
X77430Y85438D01*
X77254Y85494D01*
X77078Y85577D01*
X76903Y85679D01*
X76893D01*
X76884Y85697D01*
X76829Y85734D01*
X76746Y85808D01*
X76644Y85900D01*
X76533Y86021D01*
X76422Y86169D01*
X76311Y86344D01*
X76219Y86538D01*
Y86548D01*
X76209Y86566D01*
X76200Y86594D01*
X76182Y86631D01*
X76163Y86686D01*
X76144Y86751D01*
X76098Y86899D01*
X76052Y87084D01*
X76015Y87287D01*
X75987Y87519D01*
X75978Y87759D01*
Y87768D01*
Y87787D01*
Y87824D01*
Y87879D01*
X75987Y87944D01*
Y88018D01*
X76006Y88184D01*
X76043Y88388D01*
X76089Y88600D01*
X76154Y88822D01*
X76237Y89044D01*
Y89053D01*
X76246Y89072D01*
X76265Y89100D01*
X76283Y89136D01*
X76348Y89238D01*
X76431Y89368D01*
X76533Y89506D01*
X76662Y89645D01*
X76810Y89784D01*
X76986Y89913D01*
X76995D01*
X77004Y89922D01*
X77032Y89941D01*
X77069Y89959D01*
X77161Y90006D01*
X77291Y90061D01*
X77448Y90117D01*
X77615Y90163D01*
X77809Y90200D01*
X78003Y90209D01*
X78068D01*
X78142Y90200D01*
X78234Y90190D01*
X78345Y90172D01*
X78465Y90144D01*
X78585Y90107D01*
X78706Y90052D01*
X78715Y90042D01*
X78761Y90024D01*
X78816Y89987D01*
X78891Y89932D01*
X78964Y89876D01*
X79057Y89802D01*
X79140Y89719D01*
X79214Y89627D01*
Y91882D01*
X80000D01*
Y85466D01*
D02*
G37*
G36*
X73315Y90200D02*
X73399Y90190D01*
X73491Y90172D01*
X73602Y90154D01*
X73713Y90135D01*
X73963Y90061D01*
X74101Y90006D01*
X74231Y89950D01*
X74360Y89876D01*
X74490Y89793D01*
X74610Y89700D01*
X74730Y89590D01*
X74739Y89580D01*
X74758Y89562D01*
X74785Y89525D01*
X74822Y89469D01*
X74869Y89405D01*
X74915Y89331D01*
X74970Y89238D01*
X75026Y89127D01*
X75081Y89007D01*
X75137Y88868D01*
X75183Y88720D01*
X75229Y88563D01*
X75266Y88388D01*
X75294Y88203D01*
X75312Y87999D01*
X75322Y87787D01*
Y87768D01*
Y87731D01*
X75312Y87666D01*
Y87574D01*
X75303Y87472D01*
X75285Y87343D01*
X75266Y87213D01*
X75229Y87065D01*
X75192Y86917D01*
X75146Y86760D01*
X75090Y86594D01*
X75017Y86437D01*
X74943Y86289D01*
X74841Y86141D01*
X74739Y86002D01*
X74610Y85882D01*
X74601Y85873D01*
X74582Y85864D01*
X74545Y85836D01*
X74499Y85799D01*
X74443Y85762D01*
X74369Y85716D01*
X74295Y85669D01*
X74203Y85623D01*
X74101Y85577D01*
X73990Y85531D01*
X73741Y85448D01*
X73454Y85383D01*
X73306Y85373D01*
X73149Y85364D01*
X73057D01*
X72992Y85373D01*
X72909Y85383D01*
X72816Y85401D01*
X72714Y85420D01*
X72594Y85438D01*
X72345Y85521D01*
X72215Y85568D01*
X72086Y85632D01*
X71956Y85697D01*
X71827Y85789D01*
X71707Y85882D01*
X71586Y85993D01*
X71577Y86002D01*
X71559Y86021D01*
X71531Y86058D01*
X71494Y86104D01*
X71448Y86169D01*
X71392Y86252D01*
X71337Y86344D01*
X71281Y86446D01*
X71226Y86557D01*
X71170Y86696D01*
X71115Y86834D01*
X71069Y86992D01*
X71032Y87158D01*
X71004Y87334D01*
X70985Y87519D01*
X70976Y87722D01*
Y87731D01*
Y87759D01*
Y87805D01*
Y87870D01*
X70985Y87944D01*
X70995Y88036D01*
Y88129D01*
X71013Y88230D01*
X71041Y88462D01*
X71096Y88693D01*
X71161Y88924D01*
X71254Y89136D01*
Y89146D01*
X71263Y89155D01*
X71281Y89183D01*
X71300Y89220D01*
X71365Y89312D01*
X71448Y89423D01*
X71559Y89552D01*
X71697Y89682D01*
X71855Y89811D01*
X72039Y89932D01*
X72049D01*
X72058Y89941D01*
X72086Y89959D01*
X72132Y89978D01*
X72178Y89996D01*
X72234Y90015D01*
X72372Y90070D01*
X72530Y90117D01*
X72724Y90163D01*
X72927Y90200D01*
X73149Y90209D01*
X73241D01*
X73315Y90200D01*
D02*
G37*
G36*
X68988Y90163D02*
X69081Y90154D01*
X69192Y90144D01*
X69303Y90117D01*
X69405Y90089D01*
X69506Y90042D01*
X69515Y90033D01*
X69543Y90015D01*
X69580Y89987D01*
X69636Y89941D01*
X69682Y89895D01*
X69737Y89830D01*
X69793Y89765D01*
X69830Y89682D01*
Y89673D01*
X69848Y89636D01*
X69858Y89571D01*
X69876Y89479D01*
X69894Y89358D01*
X69904Y89284D01*
Y89201D01*
X69913Y89100D01*
X69922Y88998D01*
Y88887D01*
Y88757D01*
Y86076D01*
X70505D01*
Y85466D01*
X69922D01*
Y84319D01*
X69136Y83848D01*
Y85466D01*
X68341D01*
Y86076D01*
X69136D01*
Y88804D01*
Y88822D01*
Y88859D01*
Y88915D01*
X69127Y88979D01*
X69118Y89127D01*
X69109Y89192D01*
X69099Y89238D01*
X69090Y89257D01*
X69062Y89294D01*
X69025Y89340D01*
X68961Y89386D01*
X68942Y89395D01*
X68896Y89414D01*
X68813Y89432D01*
X68693Y89442D01*
X68600D01*
X68554Y89432D01*
X68489D01*
X68415Y89423D01*
X68341Y89414D01*
X68239Y90107D01*
X68258D01*
X68295Y90117D01*
X68360Y90126D01*
X68443Y90135D01*
X68535Y90154D01*
X68637Y90163D01*
X68840Y90172D01*
X68914D01*
X68988Y90163D01*
D02*
G37*
%LPC*%
G36*
X78058Y89562D02*
X78003D01*
X77966Y89552D01*
X77874Y89534D01*
X77744Y89506D01*
X77605Y89451D01*
X77457Y89377D01*
X77309Y89266D01*
X77235Y89201D01*
X77161Y89127D01*
Y89118D01*
X77143Y89109D01*
X77125Y89081D01*
X77106Y89044D01*
X77069Y88998D01*
X77041Y88933D01*
X77004Y88868D01*
X76967Y88785D01*
X76940Y88702D01*
X76903Y88591D01*
X76866Y88480D01*
X76838Y88360D01*
X76820Y88221D01*
X76801Y88073D01*
X76782Y87916D01*
Y87750D01*
Y87740D01*
Y87713D01*
Y87666D01*
X76792Y87602D01*
Y87528D01*
X76801Y87444D01*
X76829Y87250D01*
X76875Y87038D01*
X76940Y86825D01*
X77032Y86612D01*
X77088Y86511D01*
X77152Y86427D01*
Y86418D01*
X77171Y86409D01*
X77217Y86354D01*
X77291Y86289D01*
X77393Y86206D01*
X77522Y86122D01*
X77670Y86048D01*
X77836Y86002D01*
X77929Y85993D01*
X78021Y85984D01*
X78068D01*
X78105Y85993D01*
X78197Y86011D01*
X78317Y86039D01*
X78456Y86095D01*
X78604Y86178D01*
X78687Y86233D01*
X78761Y86298D01*
X78835Y86372D01*
X78909Y86455D01*
Y86465D01*
X78927Y86474D01*
X78946Y86502D01*
X78964Y86538D01*
X78992Y86594D01*
X79029Y86649D01*
X79066Y86723D01*
X79094Y86797D01*
X79131Y86890D01*
X79168Y86992D01*
X79196Y87102D01*
X79233Y87223D01*
X79251Y87361D01*
X79269Y87500D01*
X79288Y87648D01*
Y87814D01*
Y87824D01*
Y87851D01*
Y87898D01*
X79279Y87962D01*
Y88036D01*
X79269Y88119D01*
X79242Y88314D01*
X79196Y88535D01*
X79140Y88748D01*
X79048Y88961D01*
X78992Y89053D01*
X78927Y89136D01*
X78909Y89155D01*
X78863Y89201D01*
X78789Y89275D01*
X78687Y89349D01*
X78558Y89423D01*
X78410Y89497D01*
X78243Y89543D01*
X78151Y89552D01*
X78058Y89562D01*
D02*
G37*
G36*
X73149D02*
X73094D01*
X73047Y89552D01*
X72945Y89534D01*
X72807Y89506D01*
X72659Y89451D01*
X72492Y89377D01*
X72335Y89266D01*
X72252Y89192D01*
X72178Y89118D01*
X72169Y89109D01*
X72160Y89100D01*
X72141Y89072D01*
X72113Y89035D01*
X72086Y88989D01*
X72049Y88933D01*
X72012Y88859D01*
X71975Y88785D01*
X71938Y88693D01*
X71910Y88591D01*
X71873Y88480D01*
X71845Y88360D01*
X71818Y88221D01*
X71799Y88083D01*
X71781Y87925D01*
Y87759D01*
Y87750D01*
Y87722D01*
Y87676D01*
X71790Y87620D01*
Y87546D01*
X71799Y87463D01*
X71827Y87269D01*
X71873Y87065D01*
X71947Y86844D01*
X72049Y86640D01*
X72104Y86538D01*
X72178Y86455D01*
Y86446D01*
X72197Y86437D01*
X72252Y86381D01*
X72335Y86316D01*
X72446Y86233D01*
X72585Y86150D01*
X72751Y86076D01*
X72936Y86030D01*
X73038Y86021D01*
X73149Y86011D01*
X73204D01*
X73251Y86021D01*
X73352Y86030D01*
X73491Y86067D01*
X73648Y86122D01*
X73815Y86196D01*
X73972Y86307D01*
X74055Y86381D01*
X74129Y86455D01*
Y86465D01*
X74148Y86474D01*
X74166Y86502D01*
X74194Y86538D01*
X74221Y86585D01*
X74249Y86640D01*
X74286Y86714D01*
X74323Y86788D01*
X74360Y86881D01*
X74397Y86973D01*
X74425Y87084D01*
X74453Y87204D01*
X74480Y87334D01*
X74499Y87472D01*
X74508Y87629D01*
X74517Y87787D01*
Y87796D01*
Y87824D01*
Y87870D01*
X74508Y87935D01*
Y88008D01*
X74499Y88092D01*
X74471Y88286D01*
X74425Y88508D01*
X74351Y88730D01*
X74258Y88942D01*
X74194Y89035D01*
X74129Y89127D01*
X74120D01*
X74110Y89146D01*
X74055Y89192D01*
X73972Y89266D01*
X73861Y89340D01*
X73722Y89423D01*
X73556Y89497D01*
X73362Y89543D01*
X73260Y89552D01*
X73149Y89562D01*
D02*
G37*
%LPD*%
D12*
X48000Y78000D02*
X112000D01*
X48000D02*
Y102000D01*
X112000D01*
Y78000D02*
Y102000D01*
M02*
