G04*
G04 #@! TF.GenerationSoftware,Altium Limited,Altium Designer,23.1.1 (15)*
G04*
G04 Layer_Color=16711935*
%FSLAX44Y44*%
%MOMM*%
G71*
G04*
G04 #@! TF.SameCoordinates,A873AAFA-6C65-4712-A0E8-E9F7B2878B64*
G04*
G04*
G04 #@! TF.FilePolarity,Positive*
G04*
G01*
G75*
%ADD12C,0.2000*%
%ADD13C,0.1270*%
%ADD52C,0.1000*%
D12*
X485600Y570000D02*
G03*
X485600Y570000I-1000J0D01*
G01*
X124000Y355000D02*
G03*
X124000Y355000I-1000J0D01*
G01*
D13*
X112500Y345950D02*
X117000D01*
Y367300D01*
X112500D02*
X117000D01*
X112500Y392700D02*
X117000D01*
Y414050D01*
X112500D02*
X117000D01*
X112500Y392700D02*
Y414050D01*
Y367300D02*
Y392700D01*
Y345950D02*
Y367300D01*
X51400Y345950D02*
X112500D01*
X36000Y361300D02*
X51400Y345950D01*
X36000Y361300D02*
Y400000D01*
X50000Y414050D01*
X112500D01*
D52*
X574500Y344000D02*
G03*
X574500Y344000I-5000J0D01*
G01*
X202900Y269050D02*
G03*
X202900Y269050I-5000J0D01*
G01*
X261000Y561750D02*
G03*
X261000Y561750I-5000J0D01*
G01*
X381500Y287000D02*
Y353000D01*
X578500Y287000D02*
Y353000D01*
X381500Y287000D02*
X578500D01*
X381500Y353000D02*
X578500D01*
X188900Y176550D02*
X254900D01*
X188900Y278050D02*
X254900D01*
Y176550D02*
Y278050D01*
X188900Y176550D02*
Y278050D01*
X291500Y298000D02*
Y322000D01*
X228500Y298000D02*
X291500D01*
X228500Y322000D02*
X291500D01*
X228500Y298000D02*
Y322000D01*
X591500Y108000D02*
Y132000D01*
X528500Y108000D02*
X591500D01*
X528500Y132000D02*
X591500D01*
X528500Y108000D02*
Y132000D01*
X491100Y557300D02*
X592700D01*
Y582700D01*
X491100D02*
X592700D01*
X491100Y557300D02*
Y582700D01*
X31000Y501900D02*
X89000D01*
X31000D02*
Y552700D01*
X89000Y501900D02*
Y552700D01*
X31000D02*
X89000D01*
X368000Y478500D02*
X392000D01*
X368000D02*
Y541500D01*
X392000Y478500D02*
Y541500D01*
X368000D02*
X392000D01*
X543500Y428000D02*
Y452000D01*
X606500D01*
X543500Y428000D02*
X606500D01*
Y452000D01*
X247000Y469250D02*
X313000D01*
X247000Y570750D02*
X313000D01*
Y469250D02*
Y570750D01*
X247000Y469250D02*
Y570750D01*
X178000Y488500D02*
X202000D01*
X178000D02*
Y551500D01*
X202000Y488500D02*
Y551500D01*
X178000D02*
X202000D01*
X261500Y88000D02*
Y112000D01*
X198500Y88000D02*
X261500D01*
X198500Y112000D02*
X261500D01*
X198500Y88000D02*
Y112000D01*
X471500Y108000D02*
Y132000D01*
X408500Y108000D02*
X471500D01*
X408500Y132000D02*
X471500D01*
X408500Y108000D02*
Y132000D01*
X318000Y128500D02*
X342000D01*
X318000D02*
Y191500D01*
X342000Y128500D02*
Y191500D01*
X318000D02*
X342000D01*
X428500Y168000D02*
Y192000D01*
X491500D01*
X428500Y168000D02*
X491500D01*
Y192000D01*
X248500Y618000D02*
Y642000D01*
X311500D01*
X248500Y618000D02*
X311500D01*
Y642000D01*
X568500Y168000D02*
Y192000D01*
X631500D01*
X568500Y168000D02*
X631500D01*
Y192000D01*
X317300Y47300D02*
Y72700D01*
Y47300D02*
X342700D01*
Y72700D01*
X317300D02*
X342700D01*
X128000Y488500D02*
X152000D01*
X128000D02*
Y551500D01*
X152000Y488500D02*
Y551500D01*
X128000D02*
X152000D01*
X58500Y138000D02*
Y162000D01*
X121500D01*
X58500Y138000D02*
X121500D01*
Y162000D01*
X58500Y208000D02*
Y232000D01*
X121500D01*
X58500Y208000D02*
X121500D01*
Y232000D01*
M02*
